<?xml version="1.0" encoding="UTF-8" standalone="yes"?><svg xmlns="http://www.w3.org/2000/svg" xmlns:xlink="http://www.w3.org/1999/xlink" height="117pt" style="width:137px;height:117px;" version="1.1" viewBox="0 0 137 117" width="137pt"><defs/><g><text fill="#000000" font-family="Default" font-size="12" lengthAdjust="spacingAndGlyphs" textLength="120" x="16" y="17.6016">&lt;Garry's Mod Root&gt;</text><text fill="#000000" font-family="Default" font-size="12" lengthAdjust="spacingAndGlyphs" textLength="43" x="26" y="31.7344">addons</text><text fill="#000000" font-family="Default" font-size="12" lengthAdjust="spacingAndGlyphs" textLength="17" x="36" y="45.8672">ulx</text><text fill="#000000" font-family="Default" font-size="12" lengthAdjust="spacingAndGlyphs" textLength="56" x="46" y="60">addon.txt</text><text fill="#000000" font-family="Default" font-size="12" lengthAdjust="spacingAndGlyphs" textLength="17" x="46" y="74.1328">lua</text><text fill="#000000" font-family="Default" font-size="12" lengthAdjust="spacingAndGlyphs" textLength="44" x="56" y="88.2656">autorun</text><text fill="#000000" font-family="Default" font-size="12" lengthAdjust="spacingAndGlyphs" textLength="61" x="66" y="102.3984">ulx_init.lua</text><text fill="#000000" font-family="Default" font-size="12" lengthAdjust="spacingAndGlyphs" textLength="17" x="56" y="116.5313">ulx</text><rect fill="none" height="2" style="stroke: #888888; stroke-width: 1.0;" width="2" x="9" y="12.0664"/><rect fill="none" height="2" style="stroke: #888888; stroke-width: 1.0;" width="2" x="19" y="26.1992"/><line style="stroke: #888888; stroke-width: 1.0;" x1="10" x2="10" y1="15.0664" y2="27.1992"/><line style="stroke: #888888; stroke-width: 1.0;" x1="10" x2="18" y1="27.1992" y2="27.1992"/><rect fill="none" height="2" style="stroke: #888888; stroke-width: 1.0;" width="2" x="29" y="40.332"/><line style="stroke: #888888; stroke-width: 1.0;" x1="20" x2="20" y1="29.1992" y2="41.332"/><line style="stroke: #888888; stroke-width: 1.0;" x1="20" x2="28" y1="41.332" y2="41.332"/><line style="stroke: #888888; stroke-width: 1.0;" x1="30" x2="30" y1="43.332" y2="55.4648"/><line style="stroke: #888888; stroke-width: 1.0;" x1="30" x2="38" y1="55.4648" y2="55.4648"/><rect fill="none" height="2" style="stroke: #888888; stroke-width: 1.0;" width="2" x="39" y="68.5977"/><line style="stroke: #888888; stroke-width: 1.0;" x1="30" x2="30" y1="43.332" y2="69.5977"/><line style="stroke: #888888; stroke-width: 1.0;" x1="30" x2="38" y1="69.5977" y2="69.5977"/><rect fill="none" height="2" style="stroke: #888888; stroke-width: 1.0;" width="2" x="49" y="82.7305"/><line style="stroke: #888888; stroke-width: 1.0;" x1="40" x2="40" y1="71.5977" y2="83.7305"/><line style="stroke: #888888; stroke-width: 1.0;" x1="40" x2="48" y1="83.7305" y2="83.7305"/><line style="stroke: #888888; stroke-width: 1.0;" x1="50" x2="50" y1="85.7305" y2="97.8633"/><line style="stroke: #888888; stroke-width: 1.0;" x1="50" x2="58" y1="97.8633" y2="97.8633"/><line style="stroke: #888888; stroke-width: 1.0;" x1="40" x2="40" y1="71.5977" y2="111.9961"/><line style="stroke: #888888; stroke-width: 1.0;" x1="40" x2="48" y1="111.9961" y2="111.9961"/></g></svg>